<?xml version="1.0" standalone="no"?>
<!DOCTYPE svg PUBLIC "-//W3C//DTD SVG 20010904//EN"
 "http://www.w3.org/TR/2001/REC-SVG-20010904/DTD/svg10.dtd">
<svg version="1.0" xmlns="http://www.w3.org/2000/svg"
 width="960.000000pt" height="352.000000pt" viewBox="0 0 960.000000 352.000000"
 preserveAspectRatio="xMidYMid meet">

<g transform="translate(0.000000,352.000000) scale(0.100000,-0.100000)"
fill="#000000" stroke="none">
<path d="M4789 3465 c-76 -39 -130 -95 -167 -175 -23 -47 -27 -72 -30 -165 -2
-69 2 -136 11 -180 l15 -70 1 115 c2 196 43 311 146 416 33 33 71 68 85 77 43
28 8 18 -61 -18z"/>
<path d="M4948 3442 c-201 -86 -268 -178 -268 -368 0 -46 9 -130 20 -186 11
-57 20 -108 20 -114 0 -6 -46 -23 -102 -38 -146 -38 -254 -92 -314 -159 -69
-75 -88 -133 -86 -264 2 -138 15 -161 32 -54 7 44 17 81 22 81 5 0 88 -38 184
-85 154 -74 174 -86 166 -102 -19 -38 -2 -44 49 -17 156 79 216 238 176 469
-9 49 -13 92 -9 95 4 4 41 17 82 29 222 69 324 173 337 345 6 80 -1 93 -36 62
-15 -13 -33 -2 -166 100 -83 64 -151 119 -153 123 -2 5 29 32 68 61 38 28 70
54 70 56 0 5 9 8 -92 -34z m74 -246 c144 -111 173 -137 170 -157 -1 -12 -4
-25 -7 -27 -5 -5 -359 267 -363 279 -4 9 16 39 24 39 2 0 81 -60 176 -134z
m-45 -95 c95 -73 175 -136 178 -140 2 -5 -3 -15 -13 -24 -16 -14 -30 -5 -190
118 -96 73 -176 136 -179 139 -3 3 -2 17 1 31 5 19 10 24 19 17 7 -5 90 -68
184 -141z m-52 -90 c83 -63 152 -116 155 -119 5 -4 -29 -32 -40 -32 -3 0 -69
50 -148 110 -127 99 -142 114 -142 141 0 37 -12 44 175 -100z m-49 -92 c104
-80 115 -98 61 -99 -27 0 -167 109 -167 130 0 10 -3 25 -6 34 -3 9 -3 16 0 16
4 0 54 -37 112 -81z m-37 -103 l22 -23 -25 -5 c-25 -5 -36 7 -36 38 0 21 13
17 39 -10z m-86 -158 c8 -30 6 -31 -39 -11 -38 16 -38 16 -14 24 41 12 47 10
53 -13z m23 -115 c3 -12 4 -26 2 -32 -1 -5 -59 18 -128 51 l-125 60 35 12 c32
12 41 10 122 -28 64 -30 90 -47 94 -63z m-152 -23 c145 -70 156 -77 156 -102
0 -16 -2 -28 -5 -28 -13 0 -365 174 -365 180 0 8 42 30 51 27 3 -1 77 -36 163
-77z m-59 -87 c113 -54 205 -100 205 -103 0 -4 -6 -14 -13 -24 -12 -16 -21
-13 -132 40 -66 31 -162 76 -213 100 -87 41 -92 45 -80 64 7 11 16 20 20 20 4
0 100 -44 213 -97z m73 -149 c41 -19 72 -39 70 -46 -12 -36 -36 -30 -229 62
-107 51 -196 94 -198 96 -2 2 -1 14 3 28 l6 25 138 -66 c75 -36 170 -81 210
-99z"/>
<path d="M3910 2849 c-1158 -43 -2306 -173 -3175 -360 -207 -45 -597 -140
-592 -146 3 -2 69 9 148 26 1010 210 2429 357 3729 387 292 7 295 7 335 32 22
14 65 36 95 48 l55 23 -195 -1 c-107 -1 -287 -5 -400 -9z"/>
<path d="M5293 2811 l-42 -48 307 -6 c1271 -28 2611 -164 3676 -373 98 -19
180 -33 183 -31 2 3 -89 28 -204 55 -1015 246 -2160 389 -3553 442 -354 14
-318 17 -367 -39z"/>
<path d="M4906 2578 c4 -18 7 -73 7 -123 0 -157 -46 -260 -152 -336 -48 -36
-52 -41 -26 -35 59 14 129 62 162 110 40 58 53 103 53 180 0 55 -36 236 -47
236 -2 0 -1 -15 3 -32z"/>
<path d="M9438 2343 c7 -3 16 -2 19 1 4 3 -2 6 -13 5 -11 0 -14 -3 -6 -6z"/>
<path d="M108 2333 c7 -3 16 -2 19 1 4 3 -2 6 -13 5 -11 0 -14 -3 -6 -6z"/>
<path d="M9478 2333 c7 -3 16 -2 19 1 4 3 -2 6 -13 5 -11 0 -14 -3 -6 -6z"/>
<path d="M5250 1773 c-100 -17 -189 -61 -262 -131 -122 -116 -168 -228 -175
-428 -4 -101 -2 -149 11 -206 58 -262 243 -418 496 -418 96 0 171 18 239 57
50 29 121 91 121 105 0 6 -23 37 -51 69 l-51 59 -40 -34 c-126 -108 -305 -107
-411 2 -75 78 -107 177 -107 332 0 118 14 184 56 260 93 171 303 211 451 86
l29 -24 53 65 53 64 -28 30 c-38 39 -154 96 -223 109 -53 10 -113 11 -161 3z"/>
<path d="M1020 1185 l0 -575 90 0 90 0 0 294 c0 264 -11 507 -26 576 -13 59
16 -3 51 -110 21 -63 82 -234 136 -380 l97 -265 64 -3 63 -3 54 148 c30 81 94
258 143 393 55 151 86 228 83 200 -3 -25 -8 -226 -11 -447 l-6 -403 91 0 91 0
0 575 0 575 -114 0 -113 0 -120 -342 c-66 -189 -123 -355 -127 -370 -23 -96
-24 -95 -90 97 -34 99 -98 278 -141 398 l-79 217 -113 0 -113 0 0 -575z"/>
<path d="M2330 1185 l0 -575 355 0 355 0 0 85 0 85 -255 0 -255 0 0 170 0 170
205 0 205 0 0 85 0 85 -205 0 -205 0 0 150 0 150 245 0 245 0 0 85 0 85 -345
0 -345 0 0 -575z"/>
<path d="M3270 1186 l0 -576 208 0 c175 0 221 3 286 20 104 26 167 62 231 132
101 109 139 225 139 423 0 143 -15 219 -61 315 -34 70 -123 159 -193 193 -104
50 -159 59 -392 64 l-218 5 0 -576z m467 374 c60 -26 126 -92 153 -153 43 -98
51 -285 16 -401 -30 -98 -104 -178 -198 -212 -24 -8 -85 -18 -135 -21 l-93 -6
0 413 0 413 103 -5 c76 -4 115 -11 154 -28z"/>
<path d="M4370 1185 l0 -575 100 0 100 0 0 575 0 575 -100 0 -100 0 0 -575z"/>
<path d="M5880 1185 l0 -575 340 0 340 0 0 85 0 85 -240 0 -240 0 0 490 0 490
-100 0 -100 0 0 -575z"/>
<path d="M6801 1198 c-101 -310 -186 -569 -188 -575 -4 -10 20 -13 99 -13
l105 0 44 153 44 152 194 0 194 0 24 -85 c13 -47 33 -115 44 -152 l20 -68 104
0 c58 0 105 4 105 8 0 5 -83 263 -184 573 l-183 564 -120 3 -119 3 -183 -563z
m314 355 c3 -20 33 -130 66 -245 32 -115 59 -213 59 -218 0 -6 -56 -10 -144
-10 l-143 0 52 183 c29 100 60 217 70 259 10 42 22 75 26 73 4 -3 10 -21 14
-42z"/>
<path d="M7730 1185 l0 -575 100 0 100 0 0 225 0 225 88 0 87 0 124 -225 124
-225 114 0 114 0 -15 27 c-8 16 -69 122 -135 238 l-121 210 54 27 c67 34 129
104 153 171 27 78 24 216 -6 285 -44 98 -143 161 -289 182 -37 5 -163 10 -279
10 l-213 0 0 -575z m524 381 c99 -50 114 -204 26 -287 -49 -46 -100 -59 -239
-59 l-111 0 0 186 0 185 143 -3 c115 -2 149 -7 181 -22z"/>
<path d="M3792 315 c-84 -37 -97 -215 -21 -279 36 -30 96 -35 134 -10 81 53
68 253 -19 289 -43 18 -52 18 -94 0z m94 -56 c15 -17 19 -36 19 -94 0 -84 -18
-115 -67 -115 -45 0 -70 49 -66 127 4 71 25 103 68 103 15 0 35 -9 46 -21z"/>
<path d="M5302 315 c-41 -18 -71 -81 -72 -147 0 -58 13 -95 48 -131 34 -35
106 -39 141 -6 77 72 63 248 -23 284 -43 18 -52 18 -94 0z m94 -56 c15 -17 19
-36 19 -94 0 -84 -18 -115 -67 -115 -45 0 -70 49 -66 127 4 71 25 103 68 103
15 0 35 -9 46 -21z"/>
<path d="M6453 323 c-36 -7 -81 -67 -88 -117 -10 -66 10 -140 47 -171 32 -27
93 -34 129 -15 51 28 77 159 45 235 -22 51 -77 79 -133 68z m63 -51 c22 -15
34 -52 34 -110 0 -76 -26 -115 -74 -110 -87 8 -86 228 2 228 15 0 32 -4 38 -8z"/>
<path d="M6827 320 c-40 -12 -55 -27 -62 -61 -10 -44 16 -75 91 -111 50 -24
64 -35 64 -52 0 -12 -5 -27 -12 -34 -17 -17 -80 -15 -106 4 -18 12 -26 13 -37
4 -22 -18 -19 -26 19 -44 63 -30 163 -13 180 29 9 24 7 68 -4 85 -5 8 -37 28
-71 45 -72 35 -90 55 -69 80 14 17 75 18 111 1 11 -5 19 -2 22 8 12 32 -72 62
-126 46z"/>
<path d="M2630 165 l0 -155 95 0 c88 0 95 1 95 20 0 18 -7 20 -75 20 l-75 0 0
135 c0 128 -1 135 -20 135 -19 0 -20 -7 -20 -155z"/>
<path d="M3055 308 c-17 -46 -95 -284 -95 -290 0 -4 10 -8 23 -8 19 0 25 8 35
45 l12 45 55 0 55 0 12 -45 c10 -38 16 -45 36 -45 18 0 23 4 19 17 -2 10 -24
80 -48 156 -42 133 -45 137 -72 137 -15 0 -30 -6 -32 -12z m54 -106 l19 -62
-44 0 c-42 0 -43 1 -34 24 4 13 14 43 20 66 6 23 13 40 15 38 3 -2 13 -32 24
-66z"/>
<path d="M3370 165 l0 -155 63 0 c75 0 128 23 141 63 13 35 -2 78 -32 93 -22
11 -22 11 -2 29 20 18 27 69 12 91 -15 23 -53 34 -116 34 l-66 0 0 -155z m138
103 c32 -32 -6 -78 -65 -78 -32 0 -33 1 -33 45 l0 45 43 0 c24 0 48 -5 55 -12z
m16 -139 c29 -41 -5 -79 -71 -79 l-43 0 0 50 0 50 49 0 c39 0 53 -4 65 -21z"/>
<path d="M4120 165 l0 -155 25 0 c24 0 25 2 25 65 0 61 1 65 23 65 18 0 31
-14 58 -63 28 -50 40 -63 63 -65 l28 -4 -36 65 -37 65 31 30 c30 30 38 69 24
107 -11 28 -60 45 -134 45 l-70 0 0 -155z m148 103 c16 -16 15 -63 -1 -76 -7
-6 -32 -14 -55 -18 l-42 -7 0 57 0 56 43 0 c24 0 48 -5 55 -12z"/>
<path d="M4565 308 c-17 -45 -95 -284 -95 -290 0 -4 10 -8 23 -8 19 0 25 8 35
45 l12 45 55 0 55 0 11 -45 c10 -38 15 -45 35 -45 13 0 24 3 24 8 0 4 -22 73
-48 152 -45 135 -50 145 -75 148 -16 2 -29 -2 -32 -10z m55 -111 c7 -26 10
-50 7 -53 -3 -3 -20 -4 -39 -2 l-34 3 19 64 c21 69 25 68 47 -12z"/>
<path d="M4850 300 c0 -17 7 -20 50 -20 l50 0 0 -135 0 -135 25 0 25 0 0 135
0 135 50 0 c43 0 50 3 50 20 0 19 -7 20 -125 20 -118 0 -125 -1 -125 -20z"/>
<path d="M5630 165 l0 -155 25 0 c24 0 25 2 25 65 0 61 1 65 23 65 17 0 30
-15 57 -63 29 -50 41 -63 64 -65 l28 -4 -36 65 -37 65 31 30 c30 30 38 69 24
107 -11 28 -60 45 -134 45 l-70 0 0 -155z m148 103 c16 -16 15 -63 -1 -76 -7
-6 -32 -14 -55 -18 l-42 -7 0 57 0 56 43 0 c24 0 48 -5 55 -12z"/>
<path d="M6010 300 c0 -16 7 -20 35 -20 l35 0 0 -115 0 -115 -35 0 c-28 0 -35
-4 -35 -20 0 -19 7 -20 95 -20 88 0 95 1 95 20 0 16 -7 20 -35 20 l-35 0 0
115 0 115 35 0 c28 0 35 4 35 20 0 19 -7 20 -95 20 -88 0 -95 -1 -95 -20z"/>
</g>
</svg>
